# xmcd
# 
# Track frame offsets:
#     150
#     16489
#     29385
#     49012
#     65361
#     82582
#     103821
#     118318
#     139453
#     150433
#     168028
#     187049
#     209725
#     227810
#     243923
#     258451
#     273737
#     294339
#     311393
#     328667
#     339596
# 
# Disc length: 4772
# 
# Revision: 2
# Processed by: cddbd v1.5.2PL0 Copyright (c) Steve Scherf et al.
# Submitted via: fre:ac v1.0.31
# 
DISCID=3112a215
DTITLE=Justament - Kuuskümmend seitse CD3
DYEAR=2009
DGENRE=Country
TTITLE0=Teadjamees
TTITLE1=Interneidis
TTITLE2=Jääaeg
TTITLE3=Kaugelt maalt
TTITLE4=Ilm on hukas
TTITLE5=Õhupall
TTITLE6=Mere kosilased
TTITLE7=Saar
TTITLE8=Vaikselt
TTITLE9=Mööda lumeveski teed
TTITLE10=Võitjad
TTITLE11=Petseri tsura ja Hiitola ätt
TTITLE12=Paranähtus
TTITLE13=Raha teekond
TTITLE14=Rännumees
TTITLE15=Sulle küünal aknal vilgub
TTITLE16=Vahtramahl
TTITLE17=Mis juhtus eile
TTITLE18=Tamula vanake
TTITLE19=Viimne leht
TTITLE20=Jänesel on suur jõud
EXTD=Submitted by Dandee
EXTT0=
EXTT1=
EXTT2=
EXTT3=
EXTT4=
EXTT5=
EXTT6=
EXTT7=
EXTT8=
EXTT9=
EXTT10=
EXTT11=
EXTT12=
EXTT13=
EXTT14=
EXTT15=
EXTT16=
EXTT17=
EXTT18=
EXTT19=
EXTT20=
PLAYORDER=
